<svg xmlns="http://www.w3.org/2000/svg" width="64" height="64" viewBox="0 0 24 24" shape-rendering="crispEdges">
  <path fill="#61DAFB" d="M 10 2 h 4 v 2 h 2 v 2 h 2 v 4 h 2 v 6 h -2 v 2 h -2 v 2 h -2 v 2 h -4 v -2 h -2 v -2 h -2 v -2 h -2 v -6 h 2 v -4 h 2 v -2 h 2 v -2 z" />
  <rect x="11" y="4" width="2" height="18" fill="#4AA8C3" />
  <rect x="11" y="22" width="2" height="2" fill="#4AA8C3" />

  <rect x="11" y="11" width="2" height="2" fill="#FFFFFF" />
  <rect x="9" y="10" width="1" height="1" fill="#FFFFFF" />
  <rect x="14" y="10" width="1" height="1" fill="#FFFFFF" />
  <rect x="8" y="11" width="1" height="2" fill="#FFFFFF" />
  <rect x="15" y="11" width="1" height="2" fill="#FFFFFF" />
  <rect x="9" y="13" width="1" height="1" fill="#FFFFFF" />
  <rect x="14" y="13" width="1" height="1" fill="#FFFFFF" />
  
  <rect x="10" y="9" width="1" height="1" fill="#FFFFFF" />
  <rect x="13" y="9" width="1" height="1" fill="#FFFFFF" />
  <rect x="11" y="8" width="2" height="1" fill="#FFFFFF" />
  <rect x="10" y="14" width="1" height="1" fill="#FFFFFF" />
  <rect x="13" y="14" width="1" height="1" fill="#FFFFFF" />
  <rect x="11" y="15" width="2" height="1" fill="#FFFFFF" />
</svg>