<svg width="800" height="400" viewBox="0 0 800 400" xmlns="http://www.w3.org/2000/svg" shape-rendering="crispEdges">
  <rect width="100%" height="100%" fill="#FFF8D6" rx="15" />
  
  <text x="30" y="40" font-family="monospace" font-size="20" font-weight="bold" fill="#333">
    Lv.1 Quokka's Tech Stack
  </text>
  
  <text x="30" y="70" font-family="monospace" font-size="16" fill="#555">
    🍃 JS: 1 | TS: 0 | React: 0 | Next.js: 0 | AI: 0
  </text>
  <text x="30" y="95" font-family="monospace" font-size="14" fill="#888">
    * Quokka is hunting for [Next.js] today!
  </text>

  <g transform="translate(90, 330) scale(1.5)">
    
  <path fill="#000000" d="M 10 2 h 4 v 2 h 2 v 2 h 2 v 4 h 2 v 6 h -2 v 2 h -2 v 2 h -2 v 2 h -4 v -2 h -2 v -2 h -2 v -2 h -2 v -6 h 2 v -4 h 2 v -2 h 2 v -2 z" />
  <rect x="11" y="4" width="2" height="18" fill="#333333" />
  <rect x="11" y="22" width="2" height="2" fill="#333333" />

  <rect x="10" y="9" width="1" height="6" fill="#FFFFFF" />
  <rect x="11" y="10" width="1" height="1" fill="#FFFFFF" />
  <rect x="12" y="11" width="1" height="2" fill="#FFFFFF" />
  <rect x="13" y="13" width="1" height="1" fill="#FFFFFF" />
  <rect x="14" y="9" width="1" height="6" fill="#FFFFFF" />

  </g>

  <g transform="translate(394, 266) scale(3)">
    
  <path fill="#8B4513" d="M12 5h4v2h4v-2h4v2h2v2h2v4h2v10h-2v4h-2v2h-2v2h-4v-2h-4v2h-4v-2h-2v-2h-2v-4h-2v-10h2v-4h2v-2h2v-2z"/>
  <path fill="#DEB887" d="M14 15h12v2h2v4h-2v2h-2v2h-4v-2h-4v2h-2v-2h-2v-4h2v-2h2v-4z"/>
  <path fill="#DEB887" d="M13 6h2v2h-2zM25 6h2v2h-2z"/>
  <path fill="#000000" d="M15 10h2v2h-2zM23 10h2v2h-2z"/>
  <path fill="#000000" d="M19 13h2v2h-2z"/>
  <path fill="#000000" d="M19 16h2v1h-2zM17 17h6v1h-6z"/>
  <path fill="#FFC0CB" d="M19 17h2v1h-2z"/>
  <path fill="#8B4513" d="M10 18h2v2h-2zM28 18h2v2h-2z"/>

  </g>
</svg>